<?xml version="1.0" standalone="no"?>
<!DOCTYPE svg PUBLIC "-//W3C//DTD SVG 20010904//EN"
 "http://www.w3.org/TR/2001/REC-SVG-20010904/DTD/svg10.dtd">
<svg version="1.0" xmlns="http://www.w3.org/2000/svg"
 width="708.000000pt" height="708.000000pt" viewBox="0 0 708.000000 708.000000"
 preserveAspectRatio="xMidYMid meet">
<metadata>
Created by potrace 1.14, written by Peter Selinger 2001-2017
</metadata>
<g transform="translate(0.000000,708.000000) scale(0.100000,-0.100000)"
fill="#000000" stroke="none">
<path d="M5528 5574 c-53 -28 -58 -54 -58 -278 0 -205 0 -206 -22 -210 -13 -3
-311 -19 -664 -37 l-641 -33 -129 134 c-145 150 -291 276 -331 286 -15 4 -38
3 -52 -3 -14 -5 -496 -286 -1071 -623 -575 -337 -1379 -808 -1788 -1048 -568
-333 -747 -442 -758 -463 -29 -58 -13 -538 26 -739 47 -249 142 -413 364 -636
136 -137 298 -271 337 -279 21 -5 86 14 256 74 2605 923 3710 1322 3729 1344
39 46 42 215 8 533 l-15 141 352 439 c193 242 362 450 375 464 l24 25 0 -2153
c0 -2367 -5 -2194 60 -2227 60 -31 137 -10 165 45 13 26 15 321 15 2600 0
2279 -2 2574 -15 2600 -28 55 -109 76 -167 44z m-1789 -445 c84 -75 200 -199
293 -315 246 -306 407 -686 478 -1129 23 -148 46 -463 34 -475 -5 -5 -238 -90
-519 -190 -280 -100 -602 -215 -715 -255 -113 -40 -208 -70 -211 -67 -4 4
-172 398 -374 877 l-367 870 23 15 c64 42 1256 739 1266 739 7 1 48 -31 92
-70z m1615 -271 c-9 -14 -659 -825 -679 -846 -10 -11 -17 0 -34 60 -69 237
-164 454 -276 632 -37 59 -65 109 -63 111 4 4 863 52 971 54 68 1 86 -2 81
-11z m-4049 -1708 c130 -294 277 -627 327 -738 50 -112 86 -207 82 -211 -10
-9 -914 -331 -928 -331 -18 0 -147 114 -253 223 -251 260 -315 439 -317 901
l-1 198 200 118 c110 64 301 176 424 248 124 73 226 131 227 129 1 -1 109
-243 239 -537z"/>
</g>
</svg>
