<svg xmlns="http://www.w3.org/2000/svg" viewBox="0 0 176.99 163.4"><defs><style>.cls-1{fill:#f5f5f5;}.cls-2,.cls-4,.cls-5{fill:none;}.cls-2,.cls-3,.cls-4,.cls-5,.cls-6{stroke:#000;}.cls-2{stroke-linecap:round;stroke-width:6px;}.cls-3{fill:#80cbc4;stroke-linejoin:round;}.cls-3,.cls-4{stroke-width:5px;}.cls-5{stroke-width:5px;}.cls-6{fill:#ee999c;stroke-width:4px;}</style></defs><g id="Pole_and_Bg" data-name="Pole and Bg"><circle id="Circle" class="cls-1" cx="95.31" cy="81.67" r="81.67"/><line id="Pole" class="cls-2" x1="139.75" y1="33.48" x2="139.75" y2="160.4"/></g><g id="Flag"><path class="cls-3" d="M12.14,107.09,101.07,55s13.3,9.74,19.6,25.14a73.21,73.21,0,0,1,5.17,30L28.63,144.73s-10.77-7.93-14-15.43S12.14,107.09,12.14,107.09Z" transform="translate(-9.57 -18.17)"/><line class="cls-4" x1="114.36" y1="77.15" x2="140.42" y2="44.76"/><line class="cls-5" x1="102.63" y1="47.45" x2="140.57" y2="45.44"/><path class="cls-6" d="M55.8,134.93,37,92.54l14-8.29,19.12,45.26Z" transform="translate(-9.57 -18.17)"/><path class="cls-6" d="M70.84,129.93,51,85.19l14.8-8.75L86,124.21Z" transform="translate(-9.57 -18.17)"/></g></svg>